<svg width="400" height="300" viewBox="0 0 400 300" xmlns="http://www.w3.org/2000/svg">
  <!-- Background Map Style -->
  <defs>
    <style>
      .map-background { fill: #f0f4f8; stroke: none; }
      .road { fill: none; stroke: #d1d9e0; stroke-width: 8; stroke-linecap: round; }
      .road-center { fill: none; stroke: #ffffff; stroke-width: 2; stroke-dasharray: 10,5; }
      .building { fill: #e2e8f0; stroke: #cbd5e0; stroke-width: 1; }
      .park { fill: #c6f6d5; stroke: #9ae6b4; stroke-width: 1; }
      .water { fill: #bee3f8; stroke: #90cdf4; stroke-width: 1; }
    </style>
  </defs>

  <!-- Map Background -->
  <rect class="map-background" width="400" height="300"/>
  
  <!-- Buildings -->
  <rect class="building" x="50" y="40" width="40" height="30" rx="2"/>
  <rect class="building" x="100" y="30" width="35" height="40" rx="2"/>
  <rect class="building" x="150" y="45" width="30" height="25" rx="2"/>
  <rect class="building" x="280" y="180" width="45" height="35" rx="2"/>
  <rect class="building" x="330" y="170" width="40" height="45" rx="2"/>
  
  <!-- Parks -->
  <ellipse class="park" cx="70" cy="150" rx="25" ry="20"/>
  <ellipse class="park" cx="320" cy="80" rx="30" ry="25"/>
  
  <!-- Water feature -->
  <ellipse class="water" cx="160" cy="200" rx="40" ry="25"/>
  
  <!-- Main Road Path (invisible guide for car) -->
  <path id="car-path" d="M -30,220 C 50,220 90,100 180,100 C 270,100 320,250 430,250" 
        fill="none" stroke="none"/>
  
  <!-- Visible Roads -->
  <path class="road" d="M 0,220 C 50,220 90,100 180,100 C 270,100 320,250 400,250"/>
  <path class="road-center" d="M 0,220 C 50,220 90,100 180,100 C 270,100 320,250 400,250"/>
  
  <!-- Secondary Roads -->
  <path class="road" d="M 100,0 L 100,80" stroke-width="6"/>
  <path class="road-center" d="M 100,0 L 100,80" stroke-width="1"/>
  
  <path class="road" d="M 200,120 L 280,180" stroke-width="6"/>
  <path class="road-center" d="M 200,120 L 280,180" stroke-width="1"/>
  
  <!-- Pulsing Location Dots -->
  <circle id="dot1" class="pulse-dot" cx="80" cy="200" r="6"/>
  <circle id="dot2" class="pulse-dot" cx="180" cy="100" r="6"/>
  <circle id="dot3" class="pulse-dot" cx="300" cy="230" r="6"/>
  
  <!-- Car Icon -->
  <g id="car-icon">
    <g transform="translate(-12,-8)">
      <!-- Car Body -->
      <rect fill="#4299e1" x="2" y="8" width="20" height="8" rx="2"/>
      <rect fill="#2b77c9" x="4" y="4" width="16" height="8" rx="3"/>
      
      <!-- Car Windows -->
      <rect fill="#e2e8f0" x="6" y="6" width="5" height="4" rx="1"/>
      <rect fill="#e2e8f0" x="13" y="6" width="5" height="4" rx="1"/>
      
      <!-- Car Wheels -->
      <circle fill="#2d3748" cx="6" cy="16" r="2"/>
      <circle fill="#2d3748" cx="18" cy="16" r="2"/>
      <circle fill="#4a5568" cx="6" cy="16" r="1"/>
      <circle fill="#4a5568" cx="18" cy="16" r="1"/>
      
      <!-- Car Details -->
      <rect fill="#1a365d" x="11" y="10" width="2" height="2"/>
    </g>
  </g>
  
  <!-- Location Markers -->
  <g transform="translate(80,190)">
    <circle fill="#e53e3e" r="8"/>
    <circle fill="#ffffff" r="3"/>
  </g>
  
  <g transform="translate(300,220)">
    <circle fill="#38a169" r="8"/>
    <circle fill="#ffffff" r="3"/>
  </g>
  
  <!-- Decorative Elements -->
  <circle fill="#fbd38d" cx="60" cy="60" r="3" opacity="0.7"/>
  <circle fill="#fbd38d" cx="340" cy="40" r="3" opacity="0.7"/>
  <circle fill="#fbd38d" cx="160" cy="260" r="3" opacity="0.7"/>
</svg>